PathFileType	4	(X/Y/Z)	8_coords_data.trc
DataRate	CameraRate	NumFrames	NumMarkers	Units	OrigDataRate	OrigDataStartFrame	OrigNumFrames
30.0	30.0	6	21	m	30.0	34	55
Frame#	Time	THUMB_TIP	THUMB_IP	THUMB_MCP	THUMB_CMC	INDEX_TIP	INDEX_DIP	INDEX_PIP	INDEX_MCP	MIDDLE_TIP	MIDDLE_DIP	MIDDLE_PIP	MIDDLE_MCP	RING_TIP	RING_DIP	RING_PIP	RING_MCP	PINKY_TIP	PINKY_DIP	PINKY_PIP	PINKY_MCP	WRIST
X1	Y1	Z1	X2	Y2	Z2	X3	Y3	Z3	X4	Y4	Z4	X5	Y5	Z5	X6	Y6	Z6	X7	Y7	Z7	X8	Y8	Z8	X9	Y9	Z9	X10	Y10	Z10	X11	Y11	Z11	X12	Y12	Z12	X13	Y13	Z13	X14	Y14	Z14	X15	Y15	Z15	X16	Y16	Z16	X17	Y17	Z17	X18	Y18	Z18	X19	Y19	Z19	X20	Y20	Z20	X21	Y21	Z21
33	1.1	0.00329121994972229	-0.039927299499511716	0.991135009765625	-0.00544851016998291	-0.04529759979248047	1.0154500122070313	-0.013770099639892577	-0.03678789901733399	1.038699951171875	-0.02073069953918457	-0.011124099731445312	1.0548599853515626	0.010896599769592286	-0.02949810028076172	0.9446680297851563	-0.0073621001243591305	-0.03127359962463379	0.9551710205078126	-0.024938199996948244	-0.03214929962158203	0.9686510009765625	-0.036665599822998045	-0.027673200607299806	1.0038699951171874	0.009280269622802734	-0.006786230087280273	0.9296329956054687	-0.008331199645996094	-0.00746373987197876	0.9444739990234375	-0.028644399642944338	-0.007845849990844728	0.9625570068359375	-0.04097079849243164	-0.006616869926452637	0.9999819946289062	0.00840396022796631	0.015221599578857423	0.93993798828125	-0.009918519973754883	0.015664999961853027	0.9522420043945312	-0.029596000671386718	0.015147100448608399	0.9683319702148437	-0.03889350128173828	0.012371100425720215	1.0025599975585937	0.0024118800163269037	0.036329799652099606	0.9597930297851562	-0.012812299728393555	0.03559339904785156	0.9715980224609375	-0.02518029975891113	0.033786998748779294	0.9839409790039062	-0.03353300094604492	0.029514699935913085	1.008280029296875	-0.044390800476074216	0.014150099754333496	1.0723299560546875
34	1.1333333333333333	0.001004529953002929	-0.04599369812011719	0.9921740112304688	-0.007386439800262451	-0.04823500061035156	1.016760009765625	-0.014920599937438965	-0.038094898223876954	1.0395	-0.021074100494384764	-0.01187279987335205	1.0556300048828124	0.011643199920654297	-0.03182740020751953	0.9422369995117188	-0.005445849895477295	-0.03272430038452148	0.954885986328125	-0.0222450008392334	-0.03281800079345703	0.969666015625	-0.035362098693847654	-0.027787799835205077	1.004010009765625	0.009747540473937989	-0.00756643009185791	0.9274990234375	-0.006598680019378662	-0.008126660346984864	0.9439229736328125	-0.026035299301147462	-0.008175319671630859	0.9632050170898437	-0.03938909912109375	-0.006766839981079102	0.9999869995117188	0.009148859977722168	0.01458650016784668	0.9374520263671875	-0.008183670043945313	0.014992899894714355	0.9516229858398437	-0.026950599670410157	0.014555800437927245	0.9686119995117187	-0.037159900665283206	0.012183400154113769	1.0025599975585937	0.002553109884262085	0.03609909820556641	0.957677978515625	-0.011706399917602538	0.03517279815673828	0.97093798828125	-0.02342230033874512	0.033337600708007814	0.9840189819335937	-0.03185090065002441	0.029253400802612305	1.0083699951171874	-0.04457460021972656	0.014190299987792969	1.072239990234375
35	1.1666666666666667	-0.000343658000230789	-0.051544898986816405	0.9936690063476562	-0.008892230033874512	-0.05066019821166992	1.0182999877929688	-0.0157362003326416	-0.03933300018310547	1.040530029296875	-0.021256900787353514	-0.012518899917602539	1.05652001953125	0.01198289966583252	-0.03418980026245117	0.9403270263671875	-0.0037201099395751955	-0.034245498657226564	0.954864990234375	-0.01956599998474121	-0.03367919921875	0.9706589965820313	-0.03378440093994141	-0.027960399627685546	1.004489990234375	0.009510199546813964	-0.008394399642944335	0.92522802734375	-0.005079860210418701	-0.008911459922790528	0.9434099731445312	-0.02340169906616211	-0.008732589721679687	0.9639320068359375	-0.03752899932861328	-0.006986370086669922	1.00022998046875	0.00909805965423584	0.014099699974060059	0.9348980102539063	-0.006871669769287109	0.014383999824523926	0.9506680297851563	-0.024443199157714843	0.013985799789428712	0.9690230102539062	-0.035106800079345704	0.01192609977722168	1.0027100219726564	0.002427720069885254	0.036476398468017576	0.9555269775390625	-0.010407299995422363	0.03513349914550781	0.97047998046875	-0.021141599655151368	0.03304890060424805	0.9843460083007812	-0.029741399765014647	0.02889550018310547	1.0085700073242188	-0.04469100189208984	0.014123100280761719	1.0721500244140625
36	1.2	-0.001478129982948303	-0.05819940185546875	0.9961290283203125	-0.010166199684143066	-0.05329069900512695	1.0205999755859374	-0.016558799743652344	-0.04060810089111328	1.0421600341796875	-0.02144569969177246	-0.013100700378417969	1.0576700439453126	0.012094400405883788	-0.036732799530029295	0.9387550048828125	-0.001947010040283203	-0.036017299652099606	0.9550009765625	-0.01670159912109375	-0.03467190170288086	0.9717509765625	-0.03192219924926758	-0.028452899932861327	1.00502001953125	0.008808819770812989	-0.010074299812316894	0.923177978515625	-0.004082280158996582	-0.010324399948120117	0.9428829956054687	-0.02105069923400879	-0.009793569564819336	0.9644190063476562	-0.03537200164794922	-0.0074812002182006836	1.0005700073242187	0.008492400169372558	0.013180600166320802	0.93231298828125	-0.00591834020614624	0.013433199882507324	0.949697021484375	-0.022264400482177735	0.013140999794006347	0.9693049926757813	-0.03272000122070313	0.011448499679565429	1.0028900146484374	0.002244679927825927	0.03781209945678711	0.9542119750976562	-0.00924176025390625	0.035734798431396486	0.9705180053710938	-0.01901799964904785	0.03313840103149414	0.984676025390625	-0.027467399597167968	0.028368499755859374	1.0088300170898437	-0.04454700088500976	0.01383489990234375	1.07218994140625
37	1.2333333333333334	-0.003027950048446655	-0.06448030090332031	0.9990250244140625	-0.011207799911499023	-0.055679500579833986	1.0226599731445312	-0.017386999130249024	-0.04169900131225586	1.04368994140625	-0.02148660087585449	-0.01377970027923584	1.0588299560546874	0.010486200332641601	-0.03963819885253906	0.9368359985351562	-0.001600100040435791	-0.03806750106811523	0.9547730102539063	-0.014860400199890137	-0.03590129852294922	0.9726110229492188	-0.029977399826049803	-0.028935899734497072	1.0056599731445313	0.008004349708557129	-0.01203439998626709	0.92160498046875	-0.003259310007095337	-0.01193690013885498	0.9424979858398438	-0.01887420082092285	-0.010893500328063965	0.9651160278320312	-0.032982101440429686	-0.008011480331420899	1.001030029296875	0.008643199920654297	0.011517499923706055	0.9307630004882812	-0.004690529823303223	0.012060400009155273	0.949302978515625	-0.01980820083618164	0.01211680030822754	0.969739990234375	-0.030033700942993163	0.010818599700927734	1.00327001953125	0.004090240001678467	0.037472900390625	0.9540440063476563	-0.006713129997253418	0.035234600067138674	0.9708489990234375	-0.01595989990234375	0.032520599365234375	0.9853989868164063	-0.024557300567626953	0.027574899673461915	1.0094500122070313	-0.04451119995117187	0.01368239974975586	1.0724300537109375
38	1.2666666666666666	-0.004703350067138672	-0.06904090118408203	1.0011699829101564	-0.011953900337219239	-0.057385700225830075	1.0241700439453125	-0.017916900634765625	-0.04247890090942383	1.04497998046875	-0.02137879943847656	-0.014222999572753907	1.0598900146484376	0.008289299964904785	-0.04229349899291992	0.9357000122070313	-0.002088040113449096	-0.040018501281738283	0.954719970703125	-0.014030900001525879	-0.037184200286865234	0.9732579956054688	-0.028310699462890623	-0.029457099914550783	1.0064099731445313	0.006856760025024414	-0.013393799781799316	0.9204910278320313	-0.003054110050201416	-0.013115400314331055	0.9422789916992188	-0.017547199249267578	-0.011770700454711914	0.9657059936523438	-0.03091349983215332	-0.008602330207824707	1.0016900024414062	0.008165630340576172	0.010205599784851074	0.9297940063476563	-0.004202020168304443	0.010937100410461425	0.9491409912109375	-0.01829509925842285	0.01122029972076416	0.9702239990234375	-0.027733800888061523	0.010184200286865234	1.0038800048828125	0.005322879791259766	0.03586009979248047	0.9538870239257813	-0.004992249965667724	0.03383520126342773	0.9708920288085937	-0.01387909984588623	0.031359800338745115	0.9859359741210938	-0.022043399810791016	0.026741600036621092	1.0101900024414063	-0.04440069961547852	0.013471400260925293	1.0729599609375
